<?xml version="1.0" encoding="UTF-8"?>
<svg xmlns="http://www.w3.org/2000/svg" viewBox="0 0 1200 400" width="1200" height="400">
  <rect width="1200" height="400" fill="#121212"/>
  
  <g transform="translate(8, 18) scale(0.72)">
    <!-- Trail -->
    <rect x="32" y="448" width="22" height="18" rx="8" ry="8" fill="#737373" transform="rotate(30, 43, 457)"/>
    <rect x="64" y="428" width="19" height="16" rx="7" ry="7" fill="#787878" transform="rotate(-20, 73, 436)"/>
    <rect x="50" y="408" width="16" height="14" rx="6" ry="6" fill="#767676" transform="rotate(45, 58, 415)"/>
    <rect x="90" y="420" width="26" height="21" rx="9" ry="9" fill="#7D7D7D" transform="rotate(15, 103, 430)"/>
    <rect x="116" y="400" width="22" height="18" rx="8" ry="8" fill="#808080" transform="rotate(-10, 127, 409)"/>
    <rect x="140" y="410" width="28" height="23" rx="9" ry="9" fill="#848484" transform="rotate(6, 154, 421)"/>
    <rect x="170" y="390" width="32" height="26" rx="10" ry="10" fill="#8A8A8A" transform="rotate(-4, 186, 403)"/>
    <rect x="156" y="372" width="24" height="20" rx="9" ry="9" fill="#878787" transform="rotate(8, 168, 382)"/>
    
    <!-- Cairn boulders -->
    <rect x="250" y="56" width="64" height="48" rx="22" ry="22" fill="#FFFFFF" transform="rotate(-4, 282, 80)"/>
    <rect x="228" y="120" width="108" height="58" rx="24" ry="24" fill="#DADADA" transform="rotate(2.5, 282, 149)"/>
    <rect x="212" y="194" width="140" height="62" rx="25" ry="25" fill="#BCBCBC" transform="rotate(-2, 282, 225)"/>
    <rect x="188" y="272" width="188" height="68" rx="26" ry="26" fill="#A2A2A2" transform="rotate(1.5, 282, 306)"/>
    <rect x="160" y="354" width="244" height="78" rx="28" ry="28" fill="#8A8A8A" transform="rotate(0.8, 282, 393)"/>
  </g>
  
  <text x="400" y="210" font-family="'Geist Mono', 'SF Mono', 'Fira Code', monospace" 
        font-weight="bold" font-size="112" fill="#FFFFFF" letter-spacing="8">CAIRN</text>
  <text x="403" y="266" font-family="'Geist Mono', 'SF Mono', 'Fira Code', monospace" 
        font-size="25" fill="#787878" letter-spacing="2">semantic memory for AI agents</text>
</svg>